<svg xmlns="http://www.w3.org/2000/svg" width="15.848" height="13.582" viewBox="0 0 15.848 13.582">
  <g id="arrow" transform="translate(-185 613.379)">
    <path id="Path_300" data-name="Path 300" d="M194.281-613.346a1.04,1.04,0,0,1,.464.224c.077.062,1.429,1.4,3.005,2.977,1.955,1.957,2.887,2.907,2.936,2.995a1.649,1.649,0,0,1,.162.554,1.636,1.636,0,0,1-.17.567c-.124.209-5.951,6.018-6.113,6.093a1.083,1.083,0,0,1-.863.085,1.009,1.009,0,0,1-.749-.834,1.192,1.192,0,0,1,.1-.734,12.838,12.838,0,0,1,1.715-1.81,19.468,19.468,0,0,1,2.1-1.993,2.648,2.648,0,0,1,.3-.147c.026-.008.039-.026.031-.041s-1.877-.026-5.6-.026c-5.439,0-5.586,0-5.756-.049a1.22,1.22,0,0,1-.8-.685.867.867,0,0,1-.051-.412.748.748,0,0,1,.088-.487,1.2,1.2,0,0,1,.53-.53l.178-.09,5.7-.008,5.7-.005-.041-.064c-.023-.036-.057-.064-.077-.064a1.893,1.893,0,0,1-.422-.25c-.064-.046-.881-.852-1.818-1.79-1.875-1.883-1.81-1.808-1.882-2.21a1.1,1.1,0,0,1,.8-1.257A.97.97,0,0,1,194.281-613.346Z" transform="translate(0 0)" fill="#fff"/>
  </g>
</svg>
