<svg xmlns="http://www.w3.org/2000/svg" xmlns:xlink="http://www.w3.org/1999/xlink" width="92" height="31" viewBox="0 0 92 31">
  <defs>
    <clipPath id="clip-path">
      <rect id="Rectangle_331" data-name="Rectangle 331" width="15.878" height="12.253" transform="translate(0 0)" fill="rgba(0,0,0,0)" stroke="rgba(0,0,0,0)" stroke-width="1"/>
    </clipPath>
    <clipPath id="clip-path-2">
      <rect id="Rectangle_332" data-name="Rectangle 332" width="33.113" height="31" fill="rgba(0,0,0,0)" stroke="#fff" stroke-width="0.8"/>
    </clipPath>
  </defs>
  <g id="Group_555" data-name="Group 555" transform="translate(-1131 -1029)">
    <g id="Group_549" data-name="Group 549" transform="translate(-140)">
      <g id="Rectangle_320" data-name="Rectangle 320" transform="translate(1271 1029)" fill="none" stroke="#fff" stroke-width="1">
        <rect width="92" height="31" rx="15.5" stroke="none"/>
        <rect x="0.5" y="0.5" width="91" height="30" rx="15" fill="none"/>
      </g>
      <g id="Group_545" data-name="Group 545">
        <line id="Line_473" data-name="Line 473" x2="28" transform="translate(1291.5 1044.5)" fill="none" stroke="#fff" stroke-width="0.8"/>
        <g id="Group_535" data-name="Group 535" transform="translate(1311.562 1038.374)">
          <g id="Group_534" data-name="Group 534" transform="translate(0 0)" clip-path="url(#clip-path)">
            <path id="Path_233" data-name="Path 233" d="M.728.035,15.556,5.628a.5.5,0,0,1,0,.93L.677,12.219a.5.5,0,0,1-.544-.8L4.489,6.636a.746.746,0,0,0,0-1L.183.832a.5.5,0,0,1,.546-.8" transform="translate(0 0)" fill="#fff" stroke="rgba(0,0,0,0)" stroke-width="1"/>
          </g>
        </g>
        <g id="Group_537" data-name="Group 537" transform="translate(1282.244 1029)">
          <g id="Group_536" data-name="Group 536" transform="translate(-5 0)" clip-path="url(#clip-path-2)">
            <path id="Path_234" data-name="Path 234" d="M8.441,15.883A7.441,7.441,0,0,1,8.441,1" transform="translate(-0.383 -0.383)" fill="rgba(0,0,0,0)" stroke="#fff" stroke-linecap="round" stroke-width="0.8"/>
            <path id="Path_235" data-name="Path 235" d="M8.441,39.987a7.441,7.441,0,0,1,0-14.883" transform="translate(-0.383 -9.605)" fill="rgba(0,0,0,0)" stroke="#fff" stroke-linecap="round" stroke-width="0.8"/>
            <line id="Line_475" data-name="Line 475" x2="24.437" transform="translate(8.059 15.5)" fill="none" stroke="#fff" stroke-linecap="round" stroke-width="0.8"/>
          </g>
        </g>
      </g>
    </g>
  </g>
</svg>
