<svg xmlns="http://www.w3.org/2000/svg" width="80" height="80" viewBox="0 0 80 80">
  <g id="Group_551" data-name="Group 551" transform="translate(-505 -500)">
    <g id="Group_527" data-name="Group 527" transform="translate(1937 1142) rotate(180)" opacity="0.192">
      <g id="Rectangle_176" data-name="Rectangle 176" transform="translate(1352 562)" fill="none" stroke="#fff" stroke-width="2">
        <rect width="80" height="80" rx="40" stroke="none"/>
        <rect x="1" y="1" width="78" height="78" rx="39" fill="none"/>
      </g>
      <path id="Path_225" data-name="Path 225" d="M1356.652,618.938s-3.391-17.738,17.738-17.738h14.745" transform="translate(1.048 0.8)" fill="none" stroke="#fff" stroke-linecap="round" stroke-width="2"/>
      <path id="Path_226" data-name="Path 226" d="M.2,0S-3.19,17.738,17.938,17.738H32.683" transform="translate(1357.5 584.262)" fill="none" stroke="#fff" stroke-linecap="round" stroke-width="2"/>
    </g>
    <g id="Group_528" data-name="Group 528" transform="translate(39.268 -111.232)" opacity="0.192">
      <g id="Group_31" data-name="Group 31" transform="translate(511.815 658.052) rotate(180)">
        <path id="Path_32" data-name="Path 32" d="M5.982,6.827,0,0,18.815,6.827,0,13.641,5.982,6.827Z" transform="translate(0)" fill="none" stroke="#fff" stroke-linecap="round" strokeLinejoin="round" stroke-width="1"/>
        <path id="Path_33" data-name="Path 33" d="M0,0,18.675,7.185H5.94Z" transform="translate(0.068)" fill="#fff"/>
        <path id="Path_227" data-name="Path 227" d="M0,7.185,18.676,0H5.94Z" transform="translate(0.139 6.455)" fill="#fff"/>
      </g>
    </g>
  </g>
</svg>
