<svg xmlns="http://www.w3.org/2000/svg" width="25.335" height="19.444" viewBox="0 0 25.335 19.444">
  <g id="Layer_2" data-name="Layer 2" transform="translate(-1.249 -3.75)">
    <path id="Path_533" data-name="Path 533" d="M24.522,3.75H13.081a2,2,0,0,0-1.874,1.178.919.919,0,0,1-1.638,0A2.027,2.027,0,0,0,7.684,3.75H3.312A2.074,2.074,0,0,0,1.25,5.812v5.479a2.015,2.015,0,0,0,1.343,1.956,1.473,1.473,0,0,1,0,2.8A2.015,2.015,0,0,0,1.25,18.008v3.123a2.074,2.074,0,0,0,2.062,2.062H7.684a2,2,0,0,0,1.874-1.178.919.919,0,0,1,1.638,0,2.027,2.027,0,0,0,1.885,1.178H24.522a2.074,2.074,0,0,0,2.062-2.062V5.812A2.074,2.074,0,0,0,24.522,3.75Z" transform="translate(0 0)" fill="#ffcb27"/>
    <g id="Group_1140" data-name="Group 1140" transform="translate(10.971 9.346)">
      <circle id="Ellipse_434" data-name="Ellipse 434" cx="1.591" cy="1.591" r="1.591" transform="translate(0 0.001)" fill="#fff"/>
      <circle id="Ellipse_435" data-name="Ellipse 435" cx="1.591" cy="1.591" r="1.591" transform="translate(5.067 5.068)" fill="#fff"/>
      <path id="Path_534" data-name="Path 534" d="M10.994,16.749a.954.954,0,0,1-.6-.212.943.943,0,0,1-.141-1.332l5.067-6.351a.954.954,0,0,1,1.343-.141.943.943,0,0,1,.141,1.332L11.737,16.4a.954.954,0,0,1-.742.354Z" transform="translate(-9.404 -8.499)" fill="#fff"/>
    </g>
  </g>
</svg>
