<svg xmlns="http://www.w3.org/2000/svg" width="28.858" height="20.3" viewBox="0 0 28.858 20.3" fill="currentColor">
  <g id="rHqE8W01" transform="translate(-125.998 563.778)">
    <path id="Path_301" data-name="Path 301" d="M128.24-563.756a2.643,2.643,0,0,0-1.964,1.372c-.291.592-.278.193-.278,8.751s-.013,8.155.278,8.751a2.889,2.889,0,0,0,1.125,1.125c.605.3-.233.278,13.024.278,8.769,0,12.118-.013,12.334-.049a2.59,2.59,0,0,0,2.026-1.946c.094-.4.094-15.916,0-16.319a2.658,2.658,0,0,0-1.2-1.636c-.094-.049-.206-.112-.242-.13a2,2,0,0,0-.695-.188C152.365-563.779,128.7-563.792,128.24-563.756Zm23.618,1.708c.013.045-9.415,9.451-9.787,9.765a2.472,2.472,0,0,1-3.2.076c-.112-.081-2.39-2.331-5.066-5-4.268-4.25-4.855-4.851-4.766-4.873C129.195-562.12,151.844-562.089,151.858-562.048Zm-20.484,12.015c-1.982,1.973-3.618,3.578-3.636,3.564-.045-.022-.045-14.288,0-14.333.018-.018,1.654,1.592,3.64,3.578l3.609,3.609Zm21.749-10.72v14.212c0,.031-.018.058-.045.058-.058,0-7.173-7.084-7.173-7.146s7.088-7.137,7.164-7.146C153.1-560.779,153.122-560.771,153.122-560.753Zm-16.759,8.474a21.735,21.735,0,0,0,1.695,1.6,4.167,4.167,0,0,0,2.847.664,3.239,3.239,0,0,0,1.2-.3,2.525,2.525,0,0,1,.273-.117,6.986,6.986,0,0,0,1.475-1.2,4.8,4.8,0,0,1,.816-.717,9.6,9.6,0,0,1,.865.794c1.574,1.542,6.335,6.3,6.335,6.335s-22.838.049-22.879,0c-.018-.013,1.578-1.628,3.546-3.582,2.5-2.493,3.6-3.555,3.672-3.56A.229.229,0,0,1,136.363-552.279Z" transform="translate(0 0)"/>
  </g>
</svg>
