<svg xmlns="http://www.w3.org/2000/svg" xmlns:xlink="http://www.w3.org/1999/xlink" width="33.795" height="40.066" viewBox="0 0 33.795 40.066">
  <defs>
    <clipPath id="clip-path">
      <rect id="Rectangle_555" data-name="Rectangle 555" width="33.795" height="40.066" transform="translate(0 0)" fill="none"/>
    </clipPath>
  </defs>
  <g id="Group_885" data-name="Group 885" transform="translate(1 -8)">
    <g id="Group_874" data-name="Group 874" transform="translate(-1 8)" clip-path="url(#clip-path)">
      <path id="Path_380" data-name="Path 380" d="M5.106,20.525a12.188,12.188,0,1,1,23.577.021" fill="#f55"/>
      <path id="Path_386" data-name="Path 386" d="M5.016,26.4s11.163-6.318,23.381-.209c0,0-.8-5.675.343-7.314L4.672,18.73s1.431,4.3.344,7.672" fill="#f55"/>
      <path id="Path_375" data-name="Path 375" d="M13.709,5.668A3.492,3.492,0,1,1,20.115,5.6" fill="#fff"/>
      <path id="Path_376" data-name="Path 376" d="M13.709,5.668A3.492,3.492,0,1,1,20.115,5.6" fill="none" stroke="#000" stroke-miterlimit="10" stroke-width="1.5"/>
      <path id="Path_378" data-name="Path 378" d="M21.187,24.218a5.173,5.173,0,1,1-8.731.239c.062-.1.128-.206.2-.305" fill="none" stroke="#000" stroke-miterlimit="10" stroke-width="1.5"/>
      <path id="Path_379" data-name="Path 379" d="M33.045,31.579c0,4.273-7.229,7.737-16.147,7.737S.75,35.852.75,31.579,7.98,23.842,16.9,23.842,33.045,27.306,33.045,31.579Z" stroke="#000" stroke-miterlimit="10" stroke-width="1.5"/>
      <path id="Path_381" data-name="Path 381" d="M5.106,20.525a12.188,12.188,0,1,1,23.577.021" fill="none" stroke="#000" stroke-miterlimit="10" stroke-width="1.5"/>
      <path id="Path_382" data-name="Path 382" d="M4.673,26.526a10.164,10.164,0,0,0,.687-3.684,10.123,10.123,0,0,0-.314-2.515" fill="#090406"/>
      <path id="Path_377" data-name="Path 377" d="M21.187,24.218a5.173,5.173,0,1,1-8.731.239c.062-.1.128-.206.2-.305" fill="#fff"/>
      <path id="Path_383" data-name="Path 383" d="M4.673,26.526a10.164,10.164,0,0,0,.687-3.684,10.123,10.123,0,0,0-.314-2.515" fill="none" stroke="#000" stroke-miterlimit="10" stroke-width="1.5"/>
      <path id="Path_384" data-name="Path 384" d="M28.711,20.375a10.216,10.216,0,0,0,.374,6.2" fill="#090406"/>
      <path id="Path_385" data-name="Path 385" d="M28.711,20.375a10.216,10.216,0,0,0,.374,6.2" fill="none" stroke="#000" stroke-miterlimit="10" stroke-width="1.5"/>
      <path id="Path_387" data-name="Path 387" d="M33.045,31.579c0,4.273-7.229,7.737-16.147,7.737S.75,35.852.75,31.579,7.98,23.842,16.9,23.842,33.045,27.306,33.045,31.579Z" fill="none" stroke="#000" stroke-miterlimit="10" stroke-width="1.5"/>
    </g>
  </g>
</svg>
