<svg xmlns="http://www.w3.org/2000/svg" width="21.33" height="21.33" viewBox="0 0 21.33 21.33">
  <path id="key_2_" data-name="key (2)" d="M21.225,3.064a3.657,3.657,0,0,0-5.756.739,3.666,3.666,0,1,0-3.558,6.351L1.154,20.911a.611.611,0,0,0,0,.865l1.359,1.359a.611.611,0,0,0,.865,0l1.3-1.3,1.3,1.3a.611.611,0,0,0,.865,0L7.7,22.27l-1.3-1.3a.611.611,0,1,1,.865-.865l1.3,1.3.865-.865a.612.612,0,0,0,0-.865l-1.3-1.3,6-6a3.63,3.63,0,0,0,.789,1.188A3.667,3.667,0,0,0,20.486,8.82a3.657,3.657,0,0,0,.739-5.756ZM14.183,7.636a1.223,1.223,0,1,1,0-1.73,1.223,1.223,0,0,1,0,1.73Zm4.2,4.2a1.223,1.223,0,1,1,0-1.73,1.223,1.223,0,0,1,0,1.73ZM19.5,6.525a1.223,1.223,0,1,1,0-1.73,1.223,1.223,0,0,1,0,1.73Z" transform="translate(-0.975 -1.984)"/>
</svg>
