<svg width="64" height="69" viewBox="0 0 64 69" fill="none" xmlns="http://www.w3.org/2000/svg">
<path d="M48.0364 40.0675C46.3983 40.5064 44.7146 39.5343 44.2757 37.8962L39.6478 20.6249C38.0881 14.8039 32.0833 11.3369 26.2621 12.8966C20.4411 14.4564 16.9741 20.4612 18.5339 26.2824L21.2255 36.3277C21.6644 37.9658 20.6923 39.6496 19.0542 40.0885C17.4161 40.5274 15.7324 39.5553 15.2935 37.9172L12.6018 27.8718C10.1656 18.7797 15.5805 9.40082 24.6726 6.96459C33.7647 4.52836 43.1436 9.94327 45.5799 19.0354L50.2077 36.3067C50.6466 37.9448 49.6745 39.6286 48.0364 40.0675Z" fill="#B1B4B5"/>
<path d="M57.3723 56.8165L21.2791 66.4876C17.9093 67.3906 14.4456 65.3908 13.5427 62.021L7.95131 41.1538C7.04838 37.784 9.04817 34.3203 12.4179 33.4173L48.5112 23.7462C51.8809 22.8433 55.3447 24.8431 56.2476 28.2128L61.8389 49.0799C62.7419 52.4498 60.7421 55.9136 57.3723 56.8165Z" fill="#FFB636"/>
<path d="M19.1539 61.7868L18.8482 61.8687C17.8854 62.1267 16.8958 61.5553 16.6378 60.5925L11.346 40.8434C11.088 39.8806 11.6594 38.891 12.6222 38.633L12.9279 38.5511C13.8907 38.2931 14.8803 38.8644 15.1383 39.8273L20.43 59.5764C20.688 60.5392 20.1167 61.5288 19.1539 61.7868Z" fill="#FFD469"/>
</svg>
