<svg xmlns="http://www.w3.org/2000/svg" xmlns:xlink="http://www.w3.org/1999/xlink" width="62.817" height="81.16" viewBox="0 0 62.817 81.16">
  <defs>
    <linearGradient id="linear-gradient" x1="0.199" y1="0.3" x2="0.793" y2="1.066" gradientUnits="objectBoundingBox">
      <stop offset="0" stop-color="#fef0ae"/>
      <stop offset="1" stop-color="#fac600"/>
    </linearGradient>
    <linearGradient id="linear-gradient-2" x1="0.5" y1="0.592" x2="0.5" y2="-0.435" gradientUnits="objectBoundingBox">
      <stop offset="0" stop-color="#fea613" stop-opacity="0"/>
      <stop offset="0.203" stop-color="#fda215" stop-opacity="0.204"/>
      <stop offset="0.405" stop-color="#fb961b" stop-opacity="0.404"/>
      <stop offset="0.607" stop-color="#f68225" stop-opacity="0.608"/>
      <stop offset="0.807" stop-color="#f06633" stop-opacity="0.808"/>
      <stop offset="1" stop-color="#e94444"/>
    </linearGradient>
    <linearGradient id="linear-gradient-3" x1="0.426" y1="0.506" x2="1.042" y2="0.456" xlink:href="#linear-gradient-2"/>
    <linearGradient id="linear-gradient-4" x1="0.5" y1="0.188" x2="0.5" y2="0.863" xlink:href="#linear-gradient-2"/>
    <linearGradient id="linear-gradient-6" x1="0.317" y1="0.192" x2="0.74" y2="0.904" xlink:href="#linear-gradient"/>
    <linearGradient id="linear-gradient-7" x1="1.011" y1="0.5" x2="-0.461" y2="0.5" xlink:href="#linear-gradient"/>
    <linearGradient id="linear-gradient-12" x1="1.161" y1="1.132" x2="-0.006" y2="-0.199" xlink:href="#linear-gradient"/>
    <linearGradient id="linear-gradient-13" x1="0.5" y1="0.462" x2="0.5" y2="1.115" xlink:href="#linear-gradient-2"/>
    <linearGradient id="linear-gradient-14" x1="0.575" y1="0.5" x2="1.064" y2="0.5" xlink:href="#linear-gradient-2"/>
    <linearGradient id="linear-gradient-15" x1="0.229" y1="0.028" x2="0.862" y2="0.773" gradientUnits="objectBoundingBox">
      <stop offset="0" stop-color="#537983"/>
      <stop offset="1" stop-color="#384949"/>
    </linearGradient>
    <linearGradient id="linear-gradient-16" x1="0.5" y1="0.629" x2="0.5" y2="0.027" gradientUnits="objectBoundingBox">
      <stop offset="0" stop-color="#554e56" stop-opacity="0"/>
      <stop offset="0.269" stop-color="#524b52" stop-opacity="0.271"/>
      <stop offset="0.521" stop-color="#464147" stop-opacity="0.522"/>
      <stop offset="0.765" stop-color="#343034" stop-opacity="0.765"/>
      <stop offset="1" stop-color="#1a1a1a"/>
    </linearGradient>
    <linearGradient id="linear-gradient-17" x1="0.492" y1="0.486" x2="-0.028" y2="0.552" xlink:href="#linear-gradient-16"/>
  </defs>
  <g id="locked" transform="translate(-57.632 0)">
    <g id="Group_1116" data-name="Group 1116" transform="translate(64.996 0)">
      <path id="Path_509" data-name="Path 509" d="M104.008,37.272c-.136-3.115-.131-11.626.009-14.689A23.671,23.671,0,0,1,127.541,0h.387a23.926,23.926,0,0,1,23.979,22.961c.125,2.964.12,11.39-.007,14.311l-9.3-.406c.118-2.694.122-10.777.007-13.514A14.645,14.645,0,0,0,127.928,9.305H127.6a14.369,14.369,0,0,0-14.283,13.7c-.126,2.76-.131,11.049-.009,13.858Z" transform="translate(-103.909 0)" fill="url(#linear-gradient)"/>
      <path id="Path_510" data-name="Path 510" d="M153.679,23.732h-.309a18.874,18.874,0,0,0-18.756,18.006c-.067,1.458-.1,8.949-.084,15.28l4.52-.2c-.123-2.809-.118-11.1.009-13.858a14.369,14.369,0,0,1,14.283-13.7h.332a14.645,14.645,0,0,1,14.682,14.047c.115,2.736.111,10.819-.007,13.514l4.519.2c.012-6.239-.01-13.579-.069-14.978a19.078,19.078,0,0,0-19.12-18.308Z" transform="translate(-129.655 -19.955)" fill="url(#linear-gradient-2)"/>
      <path id="Path_511" data-name="Path 511" d="M259.311.072V9.383a14.64,14.64,0,0,1,13.97,14.03c.115,2.736.111,10.819-.007,13.514l9.3.406c.128-2.921.132-11.347.007-14.311A23.921,23.921,0,0,0,259.311.072Z" transform="translate(-234.581 -0.061)" fill="url(#linear-gradient-3)"/>
      <g id="Group_1115" data-name="Group 1115" transform="translate(0 11.119)">
        <path id="Path_512" data-name="Path 512" d="M307.023,82.1c.115,2.736.111,10.819-.007,13.514l9.3.406c.128-2.921.132-11.347.007-14.311a23.913,23.913,0,0,0-3.7-11.843H299.438A14.618,14.618,0,0,1,307.023,82.1Z" transform="translate(-268.322 -69.868)" fill="url(#linear-gradient-4)"/>
        <path id="Path_513" data-name="Path 513" d="M113.3,95.615c-.123-2.809-.118-11.1.009-13.858a14.34,14.34,0,0,1,7.376-11.889h-13.1a23.55,23.55,0,0,0-3.574,11.465c-.14,3.063-.145,11.574-.009,14.689Z" transform="translate(-103.91 -69.868)" fill="url(#linear-gradient-4)"/>
      </g>
    </g>
    <g id="Group_1120" data-name="Group 1120" transform="translate(57.632 27.392)">
      <g id="Group_1118" data-name="Group 1118" transform="translate(0)">
        <path id="Path_514" data-name="Path 514" d="M113.03,174.234a137.783,137.783,0,0,0-47.98,0,6.4,6.4,0,0,0-5.117,4.872,87.248,87.248,0,0,0,0,39.815,6.4,6.4,0,0,0,5.117,4.872,137.78,137.78,0,0,0,47.98,0,6.4,6.4,0,0,0,5.117-4.872,87.246,87.246,0,0,0,0-39.815A6.4,6.4,0,0,0,113.03,174.234Z" transform="translate(-57.632 -172.129)" fill="url(#linear-gradient-6)"/>
        <g id="Group_1117" data-name="Group 1117" transform="translate(5.524 44.777)">
          <path id="Path_515" data-name="Path 515" d="M99.055,456.834v4.317q-2.411-.338-4.818-.761a6.292,6.292,0,0,1-1.895-.656v-2.915a3.315,3.315,0,0,1,3.945-3.253l.085.016A3.311,3.311,0,0,1,99.055,456.834Z" transform="translate(-92.342 -453.503)" fill="url(#linear-gradient-7)"/>
          <path id="Path_516" data-name="Path 516" d="M169.838,465.808v4.013q-3.357-.193-6.713-.553V465.8a3.314,3.314,0,0,1,3.586-3.3l.085.007a3.31,3.31,0,0,1,3.042,3.3Z" transform="translate(-151.861 -461.059)" fill="url(#linear-gradient-7)"/>
          <path id="Path_517" data-name="Path 517" d="M240.62,468.669v3.751q-3.357.081-6.713,0v-3.751a3.312,3.312,0,0,1,3.314-3.312h.085A3.312,3.312,0,0,1,240.62,468.669Z" transform="translate(-211.379 -463.471)" fill="url(#linear-gradient-7)"/>
          <path id="Path_518" data-name="Path 518" d="M311.4,465.8v3.467q-3.355.36-6.713.553v-4.013a3.31,3.31,0,0,1,3.042-3.3l.085-.007A3.314,3.314,0,0,1,311.4,465.8Z" transform="translate(-270.898 -461.059)" fill="url(#linear-gradient-7)"/>
          <path id="Path_519" data-name="Path 519" d="M382.185,456.817v2.915a6.292,6.292,0,0,1-1.895.656q-2.408.424-4.818.761v-4.317a3.311,3.311,0,0,1,2.684-3.253l.085-.016A3.315,3.315,0,0,1,382.185,456.817Z" transform="translate(-330.416 -453.503)" fill="url(#linear-gradient-7)"/>
        </g>
        <path id="Path_520" data-name="Path 520" d="M178.478,286.708a3.505,3.505,0,0,1-3.073-1.814c-.874-1.59-2.817-3.2-5.617-4.668l-.18-.1a10.6,10.6,0,0,1-5.483-11l.026-.162a9.061,9.061,0,0,1,8.345-7.615l.159-.008c.145-.006.3-.01.444-.01a9.559,9.559,0,0,1,5.38,1.634,9.56,9.56,0,0,1,5.38-1.634c.148,0,.3,0,.447.01l.156.008a9.062,9.062,0,0,1,8.345,7.62l.024.153a10.6,10.6,0,0,1-5.479,11.006l-.185.1c-2.8,1.463-4.741,3.078-5.616,4.668a3.5,3.5,0,0,1-3.073,1.814Z" transform="translate(-147.069 -247.136)" fill="url(#linear-gradient-12)"/>
        <path id="Path_521" data-name="Path 521" d="M59.936,328.755a6.4,6.4,0,0,0,5.117,4.872,137.78,137.78,0,0,0,47.98,0,6.4,6.4,0,0,0,5.117-4.872,87.4,87.4,0,0,0,2.085-26H57.851A87.4,87.4,0,0,0,59.936,328.755Z" transform="translate(-57.635 -281.964)" fill="url(#linear-gradient-13)"/>
        <path id="Path_522" data-name="Path 522" d="M257.969,174.243A138.114,138.114,0,0,0,230,172.2v53.648a138.124,138.124,0,0,0,27.968-2.045,6.4,6.4,0,0,0,5.117-4.872,87.246,87.246,0,0,0,0-39.815A6.4,6.4,0,0,0,257.969,174.243Z" transform="translate(-202.571 -172.138)" fill="url(#linear-gradient-14)"/>
      </g>
      <g id="Group_1119" data-name="Group 1119" transform="translate(19.464 16.733)">
        <path id="Path_523" data-name="Path 523" d="M203.734,282.929l-.025-.157a6.479,6.479,0,0,0-6-5.48l-.108-.006c-.112,0-.226-.008-.337-.008a6.968,6.968,0,0,0-4.744,1.822,6.621,6.621,0,0,0-.636.673,6.619,6.619,0,0,0-.636-.673,6.968,6.968,0,0,0-4.744-1.822c-.112,0-.225,0-.337.008l-.108.006a6.478,6.478,0,0,0-6,5.48l-.025.157a8.062,8.062,0,0,0,4.164,8.368l.168.089c2.93,1.532,5.416,3.424,6.665,5.695a.972.972,0,0,0,1.7,0c1.249-2.271,3.735-4.163,6.665-5.695l.168-.089a8.062,8.062,0,0,0,4.164-8.368Z" transform="translate(-179.944 -277.278)" fill="url(#linear-gradient-15)"/>
        <path id="Path_524" data-name="Path 524" d="M203.734,282.929l-.025-.157a6.479,6.479,0,0,0-6-5.48l-.108-.006c-.112,0-.226-.008-.337-.008a6.968,6.968,0,0,0-4.744,1.822,6.621,6.621,0,0,0-.636.673,6.619,6.619,0,0,0-.636-.673,6.968,6.968,0,0,0-4.744-1.822c-.112,0-.225,0-.337.008l-.108.006a6.478,6.478,0,0,0-6,5.48l-.025.157a8.062,8.062,0,0,0,4.164,8.368l.168.089c2.93,1.532,5.416,3.424,6.665,5.695a.972.972,0,0,0,1.7,0c1.249-2.271,3.735-4.163,6.665-5.695l.168-.089a8.062,8.062,0,0,0,4.164-8.368Z" transform="translate(-179.944 -277.278)" fill="url(#linear-gradient-16)"/>
        <path id="Path_525" data-name="Path 525" d="M203.734,282.929l-.025-.157a6.479,6.479,0,0,0-6-5.48l-.108-.006c-.112,0-.226-.008-.337-.008a6.968,6.968,0,0,0-4.744,1.822,6.621,6.621,0,0,0-.636.673,6.619,6.619,0,0,0-.636-.673,6.968,6.968,0,0,0-4.744-1.822c-.112,0-.225,0-.337.008l-.108.006a6.478,6.478,0,0,0-6,5.48l-.025.157a8.062,8.062,0,0,0,4.164,8.368l.168.089c2.93,1.532,5.416,3.424,6.665,5.695a.972.972,0,0,0,1.7,0c1.249-2.271,3.735-4.163,6.665-5.695l.168-.089a8.062,8.062,0,0,0,4.164-8.368Z" transform="translate(-179.944 -277.278)" fill="url(#linear-gradient-17)"/>
      </g>
    </g>
  </g>
</svg>
