<svg width="18" height="17" viewBox="0 0 18 17" fill="none" xmlns="http://www.w3.org/2000/svg">
<g clip-path="url(#clip0_35_184)">
<path d="M9.282 0.39901L11.569 5.03301L16.683 5.77601C16.8139 5.79528 16.9367 5.85072 17.0378 5.93608C17.1388 6.02143 17.214 6.13331 17.2548 6.25911C17.2957 6.3849 17.3006 6.51961 17.269 6.64804C17.2374 6.77647 17.1706 6.89353 17.076 6.98601L13.376 10.593L14.25 15.687C14.2721 15.8174 14.2574 15.9514 14.2075 16.0738C14.1576 16.1963 14.0745 16.3024 13.9675 16.3801C13.8605 16.4579 13.734 16.5042 13.6021 16.5139C13.4702 16.5236 13.3382 16.4963 13.221 16.435L8.647 14.035L4.073 16.435C3.95581 16.4963 3.82383 16.5236 3.69194 16.5139C3.56005 16.5042 3.43349 16.4579 3.32652 16.3801C3.21955 16.3024 3.13642 16.1963 3.0865 16.0738C3.03659 15.9514 3.02187 15.8174 3.044 15.687L3.918 10.593L0.218003 6.98601C0.123449 6.89353 0.0566068 6.77647 0.0250114 6.64804C-0.00658395 6.51961 -0.00167657 6.3849 0.0391804 6.25911C0.0800374 6.13331 0.15522 6.02143 0.256252 5.93608C0.357285 5.85072 0.480152 5.79528 0.611003 5.77601L5.725 5.03301L8.009 0.39901C8.06767 0.280306 8.15837 0.180374 8.27084 0.110501C8.38332 0.0406291 8.51309 0.00360107 8.6455 0.00360107C8.77791 0.00360107 8.90769 0.0406291 9.02016 0.110501C9.13264 0.180374 9.22333 0.280306 9.282 0.39901V0.39901Z" fill="url(#paint0_linear_35_184)"/>
<path d="M11.569 5.02997L9.28198 0.398971C9.22495 0.278741 9.13486 0.177258 9.02222 0.106413C8.90957 0.0355686 8.77906 -0.00170163 8.646 -0.00102864V8.77297L11.569 5.02997Z" fill="url(#paint1_linear_35_184)"/>
<path d="M13.376 10.591L17.076 6.98399C17.1704 6.89331 17.2376 6.77795 17.2697 6.65103C17.3019 6.52411 17.2978 6.39071 17.258 6.26599L8.646 8.77399L13.376 10.591Z" fill="url(#paint2_linear_35_184)"/>
<path d="M13.97 16.376L8.646 8.776V14.029L13.22 16.429C13.3371 16.4924 13.4699 16.5211 13.6027 16.5117C13.7356 16.5024 13.863 16.4553 13.97 16.376V16.376Z" fill="url(#paint3_linear_35_184)"/>
<path d="M8.646 8.77399L3.91599 10.591L3.04199 15.685C3.01862 15.815 3.03251 15.949 3.08205 16.0714C3.1316 16.1939 3.21478 16.2998 3.32199 16.377L8.646 8.77399Z" fill="url(#paint4_linear_35_184)"/>
<path d="M0.0329895 6.26602L8.64599 8.77403L5.72299 5.03003L0.60899 5.77303C0.475773 5.79121 0.350611 5.84737 0.248466 5.9348C0.14632 6.02223 0.0715138 6.13721 0.0329895 6.26602V6.26602Z" fill="url(#paint5_linear_35_184)"/>
<path d="M3.91499 10.591L0.214995 6.98399C0.120543 6.89331 0.0534184 6.77797 0.0212462 6.65105C-0.010926 6.52413 -0.00685561 6.39071 0.0329949 6.26599L8.646 8.774L3.91499 10.591Z" fill="url(#paint6_linear_35_184)"/>
</g>
<defs>
<linearGradient id="paint0_linear_35_184" x1="8.00745" y1="15.0958" x2="8.00745" y2="-2.78697" gradientUnits="userSpaceOnUse">
<stop stop-color="#FFCF95"/>
<stop offset="0.427" stop-color="#FFC954"/>
<stop offset="1" stop-color="#FFC200"/>
</linearGradient>
<linearGradient id="paint1_linear_35_184" x1="12.2033" y1="12.7827" x2="6.79573" y2="12.7827" gradientUnits="userSpaceOnUse">
<stop stop-color="#FFC200" stop-opacity="0"/>
<stop offset="0.203" stop-color="#FFBB00" stop-opacity="0.204"/>
<stop offset="0.499" stop-color="#FFA700" stop-opacity="0.498"/>
<stop offset="0.852" stop-color="#FF8800" stop-opacity="0.851"/>
<stop offset="1" stop-color="#FF7800"/>
</linearGradient>
<linearGradient id="paint2_linear_35_184" x1="13.1242" y1="4.50572" x2="12.7645" y2="11.6095" gradientUnits="userSpaceOnUse">
<stop stop-color="#FFC200" stop-opacity="0"/>
<stop offset="0.203" stop-color="#FFBB00" stop-opacity="0.204"/>
<stop offset="0.499" stop-color="#FFA700" stop-opacity="0.498"/>
<stop offset="0.852" stop-color="#FF8800" stop-opacity="0.851"/>
<stop offset="1" stop-color="#FF7800"/>
</linearGradient>
<linearGradient id="paint3_linear_35_184" x1="6.18631" y1="0.806386" x2="12.9328" y2="3.9981" gradientUnits="userSpaceOnUse">
<stop stop-color="#FFC200" stop-opacity="0"/>
<stop offset="0.203" stop-color="#FFBB00" stop-opacity="0.204"/>
<stop offset="0.499" stop-color="#FFA700" stop-opacity="0.498"/>
<stop offset="0.852" stop-color="#FF8800" stop-opacity="0.851"/>
<stop offset="1" stop-color="#FF7800"/>
</linearGradient>
<linearGradient id="paint4_linear_35_184" x1="2.18307" y1="7.89204" x2="6.90987" y2="5.73395" gradientUnits="userSpaceOnUse">
<stop stop-color="#FFC200" stop-opacity="0"/>
<stop offset="0.203" stop-color="#FFBB00" stop-opacity="0.204"/>
<stop offset="0.499" stop-color="#FFA700" stop-opacity="0.498"/>
<stop offset="0.852" stop-color="#FF8800" stop-opacity="0.851"/>
<stop offset="1" stop-color="#FF7800"/>
</linearGradient>
<linearGradient id="paint5_linear_35_184" x1="5.28692" y1="13.5926" x2="4.96352" y2="8.74717" gradientUnits="userSpaceOnUse">
<stop stop-color="#FFC200" stop-opacity="0"/>
<stop offset="0.203" stop-color="#FFBB00" stop-opacity="0.204"/>
<stop offset="0.499" stop-color="#FFA700" stop-opacity="0.498"/>
<stop offset="0.852" stop-color="#FF8800" stop-opacity="0.851"/>
<stop offset="1" stop-color="#FF7800"/>
</linearGradient>
<linearGradient id="paint6_linear_35_184" x1="11.5857" y1="13.0995" x2="6.14125" y2="3.82922" gradientUnits="userSpaceOnUse">
<stop stop-color="#FFC200" stop-opacity="0"/>
<stop offset="0.203" stop-color="#FFBB00" stop-opacity="0.204"/>
<stop offset="0.499" stop-color="#FFA700" stop-opacity="0.498"/>
<stop offset="0.852" stop-color="#FF8800" stop-opacity="0.851"/>
<stop offset="1" stop-color="#FF7800"/>
</linearGradient>
<clipPath id="clip0_35_184">
<rect width="17.292" height="16.515" fill="white"/>
</clipPath>
</defs>
</svg>
