<svg width="32" height="33" viewBox="0 0 32 33" fill="none" xmlns="http://www.w3.org/2000/svg">
<path d="M14.9957 0.0340405C14.8825 0.0431083 14.7711 0.067669 14.6647 0.107039C14.6149 0.134806 14.5596 0.151172 14.5027 0.155012C14.1124 0.301634 13.7397 0.491523 13.3917 0.721052C13.0917 0.921052 12.6357 1.27503 12.2317 1.61003C11.8938 1.89339 11.5248 2.13729 11.1317 2.33702C11.0804 2.34309 11.0317 2.36278 10.9907 2.39403C10.8497 2.49403 10.4577 2.51103 8.88167 2.50303C8.35887 2.4787 7.83504 2.48937 7.31367 2.53502C7.30167 2.55902 7.22467 2.57902 7.14367 2.57902C6.64494 2.65688 6.17684 2.86916 5.78967 3.19304C5.52572 3.42971 5.30063 3.70643 5.12267 4.01304C5.0962 4.07522 5.06649 4.13598 5.03367 4.19505C4.99659 4.25978 4.96321 4.3265 4.93367 4.395C4.87667 4.524 4.83367 4.62902 4.70367 5.00102C4.6741 5.08683 4.65103 5.17475 4.63467 5.26402C4.62097 5.34752 4.59643 5.42888 4.56167 5.50603C4.47855 5.72878 4.41628 5.95878 4.37567 6.19304C4.3603 6.27714 4.33303 6.35863 4.29467 6.43504C4.26825 6.47713 4.25565 6.52643 4.25867 6.57603C4.25576 6.63998 4.23459 6.70172 4.19767 6.75401C4.16607 6.79378 4.14507 6.84094 4.13667 6.89104C4.03231 7.19459 3.87784 7.47849 3.67967 7.731C3.1477 8.21892 2.56699 8.65086 1.94667 9.02C1.59097 9.24234 1.26038 9.50252 0.960672 9.796C0.672365 10.0555 0.43497 10.3665 0.260668 10.713C0.255335 10.7505 0.238577 10.7854 0.212671 10.813C0.0230577 11.3816 -0.0239884 11.988 0.0756701 12.579C0.111973 12.6805 0.133856 12.7865 0.140673 12.894C0.141923 12.9695 0.162955 13.0433 0.20167 13.108C0.240064 13.1678 0.261173 13.237 0.262667 13.308C0.261437 13.3727 0.28304 13.4357 0.323671 13.486C0.362372 13.5296 0.38403 13.5857 0.384668 13.644C0.387615 13.7117 0.408687 13.7773 0.445673 13.834C0.481175 13.881 0.502353 13.9373 0.50667 13.996C0.512367 14.0544 0.533408 14.1103 0.567667 14.158C0.600568 14.1985 0.621678 14.2473 0.628671 14.299C0.650889 14.3995 0.684435 14.4971 0.72867 14.59C0.891968 14.9724 0.998107 15.3767 1.04367 15.79C1.03961 16.023 1.00292 16.2542 0.934671 16.477C0.906671 16.554 0.84567 16.736 0.79767 16.877C0.736586 17.1005 0.659723 17.3194 0.567667 17.532C0.537811 17.583 0.518433 17.6395 0.510668 17.698C0.502683 17.7604 0.483366 17.8207 0.453668 17.876C0.366705 18.0639 0.291235 18.257 0.227671 18.454C0.193621 18.5625 0.166564 18.6731 0.146669 18.785C0.131004 18.8749 0.106555 18.963 0.0736712 19.048C-0.00135356 19.4721 -0.0191805 19.9043 0.0206698 20.3331C0.039479 20.5502 0.0970541 20.7622 0.190668 20.959C0.214211 20.9977 0.234615 21.0381 0.251673 21.08C0.26871 21.1219 0.289107 21.1624 0.31267 21.201C0.33267 21.233 0.360672 21.29 0.377672 21.322C0.628295 21.6822 0.928985 22.0047 1.27067 22.28C1.75254 22.6466 2.25322 22.9877 2.77067 23.302C2.78032 23.3026 2.7897 23.3054 2.79804 23.3102C2.80639 23.3151 2.81345 23.3219 2.81867 23.33C2.87546 23.3889 2.93927 23.4407 3.00867 23.4841C3.18331 23.6129 3.34811 23.7546 3.50167 23.908C3.7078 24.0894 3.87077 24.3145 3.97867 24.567C4.04334 24.6935 4.09882 24.8245 4.14467 24.959C4.15646 25.0179 4.17561 25.075 4.20167 25.129C4.29304 25.3334 4.35564 25.5495 4.38767 25.771C4.39125 25.8361 4.41233 25.899 4.44867 25.953C4.48781 26.0125 4.50899 26.0819 4.50967 26.153C4.51371 26.2305 4.53453 26.3063 4.57067 26.375C4.60192 26.4329 4.62258 26.4959 4.63167 26.561C4.63883 26.631 4.65955 26.699 4.69267 26.761C4.72529 26.8233 4.74598 26.8912 4.75367 26.961C4.75942 27.0195 4.78045 27.0753 4.81467 27.123C4.84954 27.1704 4.87066 27.2264 4.87567 27.285C4.87807 27.3367 4.89985 27.3857 4.93667 27.422C4.97157 27.4532 4.99337 27.4964 4.99767 27.543C5.00197 27.5896 5.02377 27.6329 5.05867 27.664C5.09158 27.6918 5.11326 27.7305 5.11967 27.773C5.26954 28.0537 5.46639 28.3068 5.70167 28.521C6.00342 28.8152 6.37895 29.0225 6.78867 29.121C6.8396 29.1214 6.88905 29.1383 6.92967 29.1691C7.54609 29.2467 8.16805 29.2711 8.78867 29.242C9.42284 29.2205 10.0577 29.2435 10.6887 29.311C10.746 29.3421 10.8095 29.3602 10.8747 29.364C11.2853 29.5007 11.6654 29.7161 11.9937 29.998C12.2487 30.192 12.4787 30.37 12.4987 30.398C12.5517 30.459 13.3557 31.065 13.3837 31.065C13.4813 31.1204 13.5758 31.1812 13.6667 31.2471C13.7606 31.3172 13.8611 31.3781 13.9667 31.429C14.0205 31.4404 14.0724 31.4596 14.1207 31.486C14.6513 31.7562 15.2566 31.8427 15.8417 31.732C15.927 31.6982 16.0171 31.6776 16.1087 31.671C16.2337 31.671 16.3427 31.631 16.7997 31.408C17.4577 31.0448 18.0743 30.6113 18.6387 30.115C18.9234 29.8753 19.232 29.6655 19.5597 29.489C19.6059 29.4799 19.649 29.4589 19.6847 29.428C19.7449 29.3907 19.8138 29.3697 19.8847 29.367C19.9632 29.3616 20.04 29.3408 20.1107 29.306C20.7169 29.2225 21.3302 29.2021 21.9407 29.245C22.5661 29.2906 23.1945 29.2701 23.8157 29.184C23.8838 29.1538 23.9558 29.1333 24.0297 29.123C24.1724 29.0916 24.308 29.0339 24.4297 28.953L24.5507 28.892C24.7728 28.7696 24.9751 28.6141 25.1507 28.431C25.3792 28.194 25.5712 27.9244 25.7207 27.631C25.7544 27.5379 25.7949 27.4473 25.8417 27.36C25.8961 27.2663 25.9368 27.1653 25.9627 27.06C25.9703 27.0073 25.9913 26.9574 26.0237 26.915C26.0621 26.8553 26.0832 26.786 26.0847 26.715C26.0873 26.6442 26.1084 26.5753 26.1457 26.515C26.1819 26.4639 26.2031 26.4036 26.2067 26.341C26.2399 26.1254 26.2969 25.9141 26.3767 25.711C26.3967 25.642 26.4337 25.525 26.4497 25.448C26.5323 25.1437 26.639 24.8464 26.7687 24.559C26.9754 24.1528 27.2828 23.8064 27.6617 23.553C27.9487 23.339 28.1147 23.226 28.6317 22.89C28.9814 22.6695 29.3155 22.4253 29.6317 22.159C29.9541 21.8891 30.2287 21.5665 30.4437 21.205C30.4674 21.1494 30.4944 21.0953 30.5247 21.043C30.6146 20.8899 30.6712 20.7195 30.6907 20.543C30.6956 20.4631 30.7163 20.3849 30.7517 20.313C30.8327 20.0263 30.8327 19.7227 30.7517 19.436C30.7144 19.3364 30.6938 19.2314 30.6907 19.125C30.6885 19.0277 30.6678 18.9316 30.6297 18.842C30.5945 18.7715 30.5737 18.6947 30.5687 18.616C30.5687 18.5564 30.547 18.4988 30.5077 18.454C30.467 18.4038 30.4454 18.3407 30.4467 18.276C30.4452 18.205 30.4241 18.1358 30.3857 18.076C30.3514 18.0284 30.3304 17.9725 30.3247 17.914C30.3204 17.8553 30.2992 17.799 30.2637 17.752C30.2286 17.7017 30.2076 17.6431 30.2027 17.582C30.2058 17.5417 30.1944 17.5017 30.1707 17.469C30.013 17.0871 29.8794 16.6957 29.7707 16.297C29.6932 15.8806 29.7409 15.4504 29.9077 15.061C29.9277 15.004 29.9807 14.851 30.0207 14.718C30.0522 14.6067 30.094 14.4985 30.1457 14.395C30.1745 14.3511 30.1926 14.3011 30.1987 14.249C30.2059 14.184 30.2252 14.1209 30.2557 14.063C30.2998 13.9736 30.3388 13.8818 30.3727 13.788C30.4047 13.699 30.4537 13.562 30.4817 13.488C30.5135 13.3958 30.538 13.3011 30.5547 13.205C30.5648 13.1271 30.5896 13.0518 30.6277 12.983C30.6692 12.8946 30.6887 12.7975 30.6847 12.7C30.6863 12.5971 30.707 12.4954 30.7457 12.4C30.8265 12.0641 30.8265 11.7139 30.7457 11.378C30.7118 11.2941 30.6912 11.2053 30.6847 11.115C30.6818 11.0461 30.6607 10.9792 30.6237 10.921C30.5918 10.8829 30.5707 10.837 30.5627 10.788C30.5358 10.7037 30.4949 10.6246 30.4417 10.554C30.3915 10.4873 30.3508 10.4139 30.3207 10.336C30.0445 9.99459 29.7331 9.68318 29.3917 9.40703C29.2917 9.34203 29.1007 9.20704 28.9677 9.10704C28.8714 9.0318 28.7713 8.96168 28.6677 8.89702C28.6357 8.88102 28.4937 8.792 28.3567 8.697C28.2661 8.6289 28.1685 8.57056 28.0657 8.52299C28.0457 8.52299 28.0217 8.49502 28.0047 8.46202C27.9877 8.42902 27.9647 8.40104 27.9397 8.40104C27.5456 8.17026 27.2021 7.86245 26.9297 7.49602C26.8971 7.42209 26.8594 7.35058 26.8167 7.28203C26.7175 7.08329 26.6352 6.87658 26.5707 6.66405C26.4977 6.43005 26.4217 6.18302 26.3967 6.11802C26.3717 6.05302 26.3397 5.93202 26.3237 5.85502C26.2764 5.63833 26.2143 5.42515 26.1377 5.21702C26.1064 5.14672 26.0872 5.0717 26.0807 4.99504C26.0764 4.93506 26.0552 4.8775 26.0197 4.82902C25.9855 4.78279 25.9644 4.72819 25.9587 4.671C25.9525 4.60704 25.9331 4.54506 25.9017 4.489C25.8737 4.428 25.8127 4.307 25.7727 4.218C25.6106 3.86225 25.3791 3.54246 25.0919 3.27733C24.8046 3.0122 24.4673 2.80706 24.0997 2.67399C23.3649 2.50418 22.608 2.45091 21.8567 2.51604C20.9677 2.51604 20.1567 2.488 20.0567 2.463C19.8681 2.42996 19.6874 2.36219 19.5237 2.26304C19.4967 2.23625 19.4615 2.2193 19.4237 2.21501C18.9455 1.90855 18.4878 1.57116 18.0537 1.205C17.6926 0.910341 17.3072 0.646772 16.9017 0.417036C16.8697 0.401036 16.8127 0.373034 16.7807 0.352034C16.742 0.328494 16.7016 0.30806 16.6597 0.290999C16.6277 0.278999 16.5507 0.242005 16.4897 0.210005C16.4278 0.177 16.3596 0.157561 16.2897 0.152998C16.241 0.15374 16.1933 0.139822 16.1527 0.11302C15.8984 0.0365827 15.6342 -0.00147902 15.3687 4.39545e-05C15.3037 0.00204395 15.1297 0.0160405 14.9957 0.0340405Z" fill="#FFCB27"/>
<g clip-path="url(#clip0_2179_6)">
<path fill-rule="evenodd" clip-rule="evenodd" d="M21.3641 11.4064C21.5516 11.5939 21.6569 11.8482 21.6569 12.1134C21.6569 12.3786 21.5516 12.6329 21.3641 12.8204L13.8688 20.3157C13.7697 20.4148 13.6521 20.4934 13.5227 20.547C13.3933 20.6006 13.2545 20.6282 13.1144 20.6282C12.9743 20.6282 12.8356 20.6006 12.7062 20.547C12.5768 20.4934 12.4592 20.4148 12.3601 20.3157L8.6361 16.5924C8.54059 16.5002 8.46441 16.3898 8.412 16.2678C8.35959 16.1458 8.332 16.0146 8.33085 15.8818C8.32969 15.749 8.355 15.6173 8.40528 15.4944C8.45556 15.3716 8.52981 15.2599 8.6237 15.166C8.7176 15.0721 8.82925 14.9979 8.95214 14.9476C9.07504 14.8973 9.20672 14.872 9.3395 14.8731C9.47228 14.8743 9.6035 14.9019 9.7255 14.9543C9.84751 15.0067 9.95785 15.0829 10.0501 15.1784L13.1141 18.2424L19.9494 11.4064C20.0423 11.3135 20.1526 11.2398 20.2739 11.1895C20.3953 11.1392 20.5254 11.1133 20.6568 11.1133C20.7881 11.1133 20.9182 11.1392 21.0396 11.1895C21.161 11.2398 21.2712 11.3135 21.3641 11.4064Z" fill="white"/>
</g>
<defs>
<clipPath id="clip0_2179_6">
<rect width="16" height="16" fill="white" transform="translate(7 8)"/>
</clipPath>
</defs>
</svg>
